<svg width="50" height="50" viewBox="0 0 50 50" fill="none" xmlns="http://www.w3.org/2000/svg">
<path fill-rule="evenodd" clip-rule="evenodd" d="M23.1546 23.245C22.6354 22.8867 22.0456 22.6093 21.3994 22.4364C18.4272 21.641 15.386 23.3574 14.6066 26.27C13.8271 29.1826 15.6047 32.1885 18.5768 32.9839C19.2229 33.1568 19.8722 33.211 20.5008 33.16C19.1748 32.3129 18.6297 29.9756 19.2861 27.5225C19.9427 25.069 21.5826 23.3162 23.1546 23.245Z" fill="black"/>
<path fill-rule="evenodd" clip-rule="evenodd" d="M23.4648 26.9927C23.1067 27.5118 22.8294 28.1014 22.6566 28.7474C21.8612 31.7195 23.5776 34.7608 26.4902 35.5402C29.4028 36.3196 32.4087 34.5421 33.2041 31.5699C33.377 30.9237 33.4312 30.2742 33.3802 29.6454C32.5334 30.9718 30.1958 31.5172 27.7423 30.8606C25.2891 30.2041 23.5365 28.5645 23.4648 26.9927Z" fill="black"/>
<path fill-rule="evenodd" clip-rule="evenodd" d="M27.3134 23.2792C27.6713 22.7602 27.9484 22.1709 28.1212 21.5252C28.9165 18.5531 27.2002 15.5118 24.2875 14.7324C21.3749 13.953 18.369 15.7305 17.5737 18.7027C17.4007 19.3491 17.3465 19.9989 17.3976 20.6279C18.2441 19.301 20.5821 18.7553 23.036 19.412C25.4888 20.0684 27.2413 21.7076 27.3134 23.2792Z" fill="black"/>
<path fill-rule="evenodd" clip-rule="evenodd" d="M27.0438 26.4336C27.5629 26.7917 28.1525 27.069 28.7985 27.2419C31.7707 28.0373 34.8119 26.3209 35.5914 23.4083C36.3708 20.4956 34.5932 17.4897 31.6211 16.6944C30.9748 16.5214 30.3252 16.4673 29.6964 16.5183C31.0227 17.3652 31.5681 19.7027 30.9115 22.1562C30.2551 24.6093 28.6156 26.3619 27.0438 26.4336Z" fill="black"/>
</svg>
